Coordinates
version=1
nRows=7
nColumns=33
inDegrees=yes

Units are S.I. units (second, meters, Newtons, ...)
Angles are in degrees.

endheader
time	ground_thorax_rot_x	ground_thorax_rot_y	ground_thorax_rot_z	ground_thorax_tx	ground_thorax_ty	ground_thorax_tz	clav_prot_r	clav_elev_r	scapula_abduction_r	scapula_elevation_r	scapula_upward_rot_r	scapula_winging_r	shoulder_elv_r	plane_of_elev_r	axial_rot_r	elbow_flexion_r	pro_sup_r	wrist_flex_r	wrist_dev_r	clav_prot_l	clav_elev_l	scapula_abduction_l	scapula_elevation_l	scapula_upward_rot_l	scapula_winging_l	shoulder_elv_l	plane_of_elev_l	axial_rot_l	elbow_flexion_l	pro_sup_l	wrist_flex_l	wrist_dev_l
      3.87000000	     39.37289720	      4.43448868	     13.87800520	   -176.63443861	    867.56419143	     -9.33000944	     13.57766900	     36.73210988	     36.05902068	     45.00000000	    -44.74239363	   2074.87511550	  -1732.18288248	     31.51883355	     70.00584202	   1455.00858131	     45.99118354	     17.84826167	      5.34157076	      6.98009726	    -45.00000000	    -37.52679303	     45.00000000	    -15.72158463	   -613.98855940	  -3150.98978702	     12.51387613	    179.99999979	      5.08078163	    237.45807277	     11.75447859	    -20.98524136
      3.88000000	     39.43975436	      4.19327485	     13.70839377	   -175.71000464	    869.33231260	     -9.20799183	     13.98036858	     36.64487846	     36.62293012	     45.00000000	    -45.00000000	   2074.36104702	  -1732.15052342	     31.90110526	     69.97171352	   1455.29198300	     47.37704880	     17.79606305	      5.21221962	      7.08487712	    -45.00000000	    -38.09042711	     45.00000000	    -14.33474554	   -613.26743223	  -3151.06767792	     12.78795574	    179.99999979	      5.15619424	    237.67729147	     11.73787862	    -20.92242399
      3.89000000	     39.45319355	      3.94988555	     13.38899369	   -174.73886371	    871.24326142	     -9.09171328	     14.01157587	     36.77348109	     36.85001041	     45.00000000	    -44.67461452	   2074.15997057	  -1732.07019287	     31.99088915	     69.93857713	   1455.50073856	     48.64991830	     17.74353570	      5.08513193	      6.94882396	    -45.00000000	    -38.37746211	     45.00000000	    -13.51572813	   -613.21882508	  -3150.97346524	     12.88976512	    179.99999979	      5.10370511	    237.72208017	     11.76958122	    -20.99412507
      3.90000000	     39.45742347	      3.73216124	     13.11679710	   -173.70440868	    873.29135630	     -8.99543581	     14.02261499	     36.88748369	     37.02275018	     45.00000000	    -44.23841413	   2073.99185343	  -1731.98079660	     32.04705401	     69.84506533	   1455.68292517	     49.92197514	     17.66130350	      4.92992246	      6.87869221	    -45.00000000	    -38.65354175	     45.00000000	    -12.60009758	   -613.18350457	  -3150.78803490	     12.91759084	    179.99999979	      5.01307744	    237.60565726	     11.80628567	    -21.06399643
      3.91000000	     39.47455704	      3.47824148	     12.76244974	   -172.59744127	    875.46424263	     -8.91789932	     13.97836118	     37.00294323	     37.20329457	     45.00000000	    -43.71567155	   2073.81705855	  -1731.87849083	     32.08930605	     69.74130827	   1455.88661207	     51.18379581	     17.61351454	      4.79614417	      6.80161700	    -45.00000000	    -38.91576014	     45.00000000	    -11.74541757	   -613.23096028	  -3150.63845608	     12.96250096	    179.99999979	      4.90919611	    237.32795517	     11.86571639	    -21.14508301
      3.92000000	     39.47544451	      3.25210260	     12.42923862	   -171.39614265	    877.74068224	     -8.86309190	     14.00473961	     37.10167339	     37.35137577	     45.00000000	    -43.18376426	   2073.64722889	  -1731.78331517	     32.14569774	     69.60508516	   1456.03844748	     52.55991573	     17.53986983	      4.64939674	      6.71989201	    -45.00000000	    -39.20958815	     45.00000000	    -10.69484889	   -613.24772993	  -3150.41549086	     12.99060008	    179.99999979	      4.87135920	    236.88057778	     11.94491265	    -21.18727548
      3.93000000	     39.49463274	      3.04192705	     12.10668010	   -170.08885464	    880.09674706	     -8.82227721	     14.04371750	     37.22957413	     37.54079980	     45.00000000	    -42.63781216	   2073.46474577	  -1731.66550038	     32.18780023	     69.42251419	   1456.20228101	     54.06560876	     17.46709773	      4.49824842	      6.62168768	    -45.00000000	    -39.53648898	     45.00000000	     -9.52835593	   -613.23836656	  -3150.19598968	     12.98984650	    179.99999979	      4.84989558	    236.24229598	     12.04099677	    -21.20535781
